<svg width="24" height="25" viewBox="0 0 24 25" fill="none" xmlns="http://www.w3.org/2000/svg">
<path d="M12.1 18.9016L12 19.0016L11.89 18.9016C7.14 14.5916 4 11.7416 4 8.85156C4 6.85156 5.5 5.35156 7.5 5.35156C9.04 5.35156 10.54 6.35156 11.07 7.71156H12.93C13.46 6.35156 14.96 5.35156 16.5 5.35156C18.5 5.35156 20 6.85156 20 8.85156C20 11.7416 16.86 14.5916 12.1 18.9016ZM16.5 3.35156C14.76 3.35156 13.09 4.16156 12 5.43156C10.91 4.16156 9.24 3.35156 7.5 3.35156C4.42 3.35156 2 5.76156 2 8.85156C2 12.6216 5.4 15.7116 10.55 20.3816L12 21.7016L13.45 20.3816C18.6 15.7116 22 12.6216 22 8.85156C22 5.76156 19.58 3.35156 16.5 3.35156Z" fill="black"/>
</svg>
