<svg width="357" height="241" viewBox="0 0 357 241" fill="none" xmlns="http://www.w3.org/2000/svg">
<g clip-path="url(#clip0_407_76)">
<path d="M263.097 5.70518C258.183 0.63493 251.232 -0.653041 247.578 2.83899C245.688 4.64397 245.048 7.36503 245.542 10.2766C238.262 5.26074 229.037 2.53061 219.182 3.16552C197.316 4.56233 180.647 21.9499 181.953 41.9861C182.583 51.664 187.278 60.1809 194.429 66.267C193.69 67.0017 192.886 67.6638 192.036 68.2625C188.894 70.5028 187.323 73.4688 186.109 75.9812C185.049 78.1672 184.784 80.2896 185.405 82.0583C185.579 82.5299 186.218 84.6796 186.857 85.4143C186.894 85.4596 186.94 85.4959 186.976 85.5412C189.123 90.1036 200.604 89.7498 200.604 89.7498C202.467 89.9675 204.458 90.1489 206.531 90.4029C210.989 90.938 215.802 91.7725 220.488 93.8314C229.028 97.5865 230.416 107.228 228.873 113.033C226.808 120.761 214.679 120.906 211.153 114.838C210.97 114.521 210.806 114.212 210.651 113.913C209.527 111.019 209.454 107.074 209.482 105.314C209.5 105.051 209.509 104.779 209.509 104.507C209.509 104.444 209.518 104.398 209.518 104.398L209.509 104.416C209.509 104.181 209.509 103.954 209.491 103.709C208.97 95.718 202.029 89.6501 193.982 90.1671C185.935 90.6841 179.825 97.5774 180.345 105.568C180.555 108.752 181.56 112.217 183.286 114.965C187.817 125.341 205.509 132.253 226.123 130.938C249.56 129.441 267.883 117.868 267.051 105.097C266.22 92.3258 246.555 83.183 223.118 84.6796C219.593 84.9063 216.168 85.3598 212.925 86.0129C183.56 89.0877 187.132 81.2782 189.196 78.539C189.013 78.7567 188.849 78.9744 188.693 79.183C189.013 78.6751 189.388 78.2125 189.826 77.7953C189.68 77.9495 189.451 78.2125 189.205 78.5481C189.424 78.276 189.652 78.0039 189.908 77.7227C192.849 74.9654 198.247 74.013 204.23 72.3169C207.262 73.6502 210.514 74.6207 213.902 75.2012C217.127 75.7545 220.479 75.9359 223.913 75.7182C245.779 74.3214 262.448 56.9428 261.142 36.8977C260.813 31.7821 259.333 26.9839 256.968 22.7028C260.183 23.6189 263.325 23.1744 265.398 21.188C269.033 17.7232 268.02 10.7754 263.097 5.70518ZM242.911 49.4055C239.76 55.7365 233.385 59.0018 228.681 56.6889C223.977 54.376 222.716 47.3738 225.868 41.0337C229.019 34.7027 235.394 31.4374 240.098 33.7503C244.802 36.0632 246.062 43.0745 242.911 49.4055Z" fill="url(#paint0_linear_407_76)"/>
<path d="M93.8033 19.9454C95.8127 21.9953 98.9364 22.5395 102.179 21.7232C99.6762 25.9317 98.0504 30.6755 97.5572 35.782C95.6209 55.7728 111.742 73.6683 133.544 75.7454C136.969 76.0719 140.321 75.9903 143.564 75.5368C146.971 75.0651 150.24 74.1944 153.318 72.9608C159.255 74.8384 164.608 75.954 167.467 78.802C167.713 79.0923 167.932 79.3735 168.143 79.6456C167.905 79.3009 167.677 79.0379 167.54 78.8746C167.96 79.31 168.325 79.7816 168.627 80.2986C168.471 80.0809 168.316 79.8633 168.143 79.6365C170.115 82.4392 173.44 90.3575 144.185 86.3666C140.961 85.6138 137.554 85.0514 134.037 84.7158C110.655 82.4846 90.7161 91.0106 89.483 103.754C88.25 116.498 106.198 128.625 129.58 130.856C150.14 132.815 168.042 126.457 172.901 116.226C174.719 113.532 175.833 110.103 176.134 106.92C176.902 98.947 171.02 91.8632 162.991 91.1013C154.963 90.3394 147.829 96.1806 147.062 104.153C147.035 104.389 147.035 104.625 147.025 104.861L147.016 104.843C147.016 104.843 147.016 104.888 147.016 104.951C147.007 105.224 147.007 105.496 147.016 105.759C146.989 107.518 146.797 111.455 145.582 114.321C145.418 114.611 145.244 114.911 145.043 115.228C141.335 121.178 129.215 120.661 127.397 112.87C126.036 107.02 127.726 97.4232 136.385 93.9402C141.134 92.0174 145.975 91.3462 150.441 90.9471C152.515 90.7657 154.515 90.6387 156.387 90.4845C156.387 90.4845 167.85 91.201 170.143 86.7022C170.188 86.6569 170.225 86.6206 170.271 86.5752C170.937 85.8587 171.65 83.7272 171.833 83.2646C172.508 81.5141 172.307 79.3825 171.321 77.1694C170.188 74.6207 168.709 71.6003 165.64 69.2693C164.818 68.6434 164.032 67.9541 163.311 67.2012C170.654 61.3509 175.614 52.9701 176.546 43.3284C178.473 23.3377 162.361 5.44213 140.559 3.36505C130.731 2.43081 121.424 4.86163 113.989 9.65978C114.573 6.76638 114.016 4.02717 112.189 2.16778C108.646 -1.4331 101.658 -0.371883 96.589 4.55325C91.5016 9.43302 90.2594 16.3445 93.8033 19.9454ZM118.674 33.2696C123.451 31.1018 129.717 34.5666 132.667 40.9974C135.617 47.4282 134.138 54.3941 129.37 56.5528C124.593 58.7206 118.327 55.2558 115.377 48.825C112.418 42.4033 113.897 35.4373 118.674 33.2696Z" fill="url(#paint1_linear_407_76)"/>
<path d="M56.4281 196.651H26.2594C25.7297 196.651 25.3004 197.078 25.3004 197.604V198.982C25.3004 199.509 25.7297 199.935 26.2594 199.935H34.2697C40.983 199.935 46.0339 201.187 49.2946 203.654C52.4732 206.066 54.0807 209.957 54.0807 215.227C54.0807 221.286 52.0439 226.075 48.0342 229.486C44.2894 232.696 39.5033 234.32 33.8039 234.32C24.8985 234.32 18.304 230.184 13.6458 221.676C9.71827 214.556 7.72712 204.86 7.72712 192.86C7.72712 183.418 9.93748 175.418 14.2943 169.078C19.0986 162.067 25.5561 158.665 34.0413 158.665C39.4942 158.665 43.8875 160.098 47.0934 162.919C50.2628 165.713 51.8795 169.776 51.8795 175.001C51.8795 178.23 51.2584 180.724 50.0345 182.393C48.8653 183.989 47.2395 184.769 45.0657 184.769C42.4443 184.769 40.5445 183.835 39.2476 181.912C37.8958 179.89 37.2016 177.495 37.2016 174.774C37.2016 174.248 36.7723 173.822 36.2426 173.822C35.11 173.822 34.0961 174.311 33.2102 175.291C32.3425 176.253 31.9223 177.667 31.9223 179.618C31.9223 182.538 32.9544 185.187 35.0004 187.509C37.0737 189.867 39.9508 191.064 43.5587 191.064C47.3583 191.064 50.2902 189.631 52.2905 186.801C54.2177 184.08 55.195 180.379 55.195 175.826C55.195 169.278 53.2221 164.144 49.322 160.552C45.4402 156.978 40.0696 155.173 33.3563 155.173C23.2636 155.173 15.0798 159.137 9.04237 166.956C3.03239 174.683 0 185.232 0 198.293C0 210.81 2.85885 220.987 8.48522 228.533C14.1755 236.17 22.0305 240.034 31.8218 240.034C39.1471 240.034 45.3032 237.857 50.0984 233.567C54.9301 229.25 57.378 223.236 57.378 215.69C57.378 208.96 55.3777 204.007 51.4045 200.969C50.8839 200.597 50.3359 200.252 49.7513 199.935H56.4098C56.9395 199.935 57.3688 199.509 57.3688 198.982V197.604C57.3871 197.078 56.9578 196.651 56.4281 196.651Z" fill="url(#paint2_linear_407_76)"/>
<path d="M120.939 229.721C120.629 229.558 120.264 229.567 119.962 229.749C118.656 230.565 117.222 230.982 115.715 230.982C113.623 230.982 112.016 230.184 110.801 228.551C109.477 226.765 108.371 224.47 107.522 221.749C106.645 218.955 105.86 215.889 105.166 212.615C104.462 209.277 103.531 206.13 102.389 203.245C101.229 200.307 99.6944 197.821 97.8403 195.853C95.8766 193.776 93.1821 192.733 89.83 192.733C89.1815 192.733 88.5239 192.778 87.8754 192.878C89.3459 191.708 90.8895 190.602 92.4971 189.586C95.4838 187.699 98.3244 185.767 100.964 183.844C103.649 181.885 105.914 179.79 107.696 177.631C109.568 175.355 110.527 172.652 110.527 169.595C110.527 165.259 108.572 161.903 104.727 159.618C101.037 157.423 95.7487 156.316 89.0354 156.316H67.3337C67.014 156.316 66.7218 156.47 66.5482 156.724C66.3655 156.978 66.329 157.314 66.4386 157.604C67.0414 159.173 67.5986 160.715 68.1101 162.185C68.6033 163.609 69.0143 165.169 69.3523 166.847C69.6902 168.525 69.9642 170.448 70.1469 172.561C70.3387 174.683 70.43 183.11 70.43 197.595C70.43 212.08 70.3296 220.506 70.1469 222.629C69.9551 224.742 69.6902 226.665 69.3523 228.343C69.0143 230.021 68.5942 231.59 68.1101 233.005C67.6077 234.456 67.0414 235.998 66.4386 237.585C66.329 237.876 66.3655 238.202 66.5482 238.465C66.7309 238.719 67.0232 238.873 67.3337 238.873H80.0935C80.404 238.873 80.7055 238.719 80.879 238.465C81.0617 238.211 81.0982 237.885 80.9886 237.594C79.5455 233.749 78.5864 230.619 78.1298 228.279C77.3717 224.751 76.988 219.862 76.988 213.731C76.988 209.096 78.0293 205.123 80.0935 201.903C82.4043 198.248 85.2449 196.47 88.7979 196.47C90.9443 196.47 92.5793 197.386 93.7941 199.264C95.1276 201.323 96.2419 203.944 97.1005 207.064C97.9773 210.248 98.708 213.74 99.2834 217.44C99.868 221.223 100.635 224.796 101.576 228.043C102.526 231.354 103.786 234.166 105.303 236.379C106.956 238.801 109.294 240.025 112.244 240.025C115.085 240.025 117.45 238.901 119.277 236.642C120.711 234.719 121.442 232.66 121.442 230.547C121.442 230.211 121.25 229.894 120.939 229.721ZM79.2258 196.506C78.3946 197.568 77.6548 198.701 76.9972 199.89C77.0063 183.908 77.0885 174.883 77.2255 173.024C77.5269 169.205 78.1389 165.912 79.034 163.237L80.3218 159.609H89.0445C92.762 159.609 95.9314 160.534 98.4614 162.366C100.927 164.153 102.133 166.448 102.133 169.377C102.133 171.264 101.631 173.033 100.644 174.647C99.6031 176.343 98.2604 178.03 96.662 179.663C95.0271 181.323 93.1547 183.028 91.1088 184.724C89.0263 186.447 86.9346 188.307 84.907 190.239C82.8519 192.18 80.9429 194.284 79.2258 196.506Z" fill="url(#paint3_linear_407_76)"/>
<path d="M149.254 155.164C140.522 155.164 133.425 159.128 128.155 166.937C122.967 174.629 120.337 184.942 120.337 197.604C120.337 210.257 122.967 220.579 128.155 228.27C133.425 236.08 140.522 240.043 149.254 240.043C157.831 240.043 164.891 236.107 170.234 228.334C175.504 220.678 178.171 210.338 178.171 197.604C178.171 184.869 175.495 174.529 170.234 166.874C164.891 159.11 157.831 155.164 149.254 155.164ZM166.827 224.307C163.484 232.134 158.534 235.944 151.693 235.944C145.938 235.944 141.299 233.359 137.499 228.034C134.193 223.563 131.708 217.631 130.119 210.411C128.749 204.515 128.055 198.692 128.055 193.105C128.055 184.053 129.279 176.579 131.69 170.892C135.033 163.064 139.983 159.255 146.824 159.255C152.588 159.255 157.264 161.804 161.128 167.037C164.37 171.6 166.855 177.541 168.517 184.661C169.814 190.638 170.472 196.506 170.472 202.094C170.462 211.146 169.239 218.62 166.827 224.307Z" fill="url(#paint4_linear_407_76)"/>
<path d="M219.921 155.745C217.656 155.745 215.811 156.18 214.423 157.042C214.103 157.241 213.93 157.604 213.975 157.967C214.021 158.339 214.286 158.647 214.642 158.756C217.875 159.754 220.826 162.375 223.383 166.502C226.379 171.636 227.895 177.831 227.895 184.924V209.93C227.895 218.493 226.836 224.86 224.753 228.851C222.205 233.703 217.958 236.062 211.792 236.062C205.627 236.062 201.426 233.703 198.941 228.842C196.786 224.86 195.69 218.493 195.69 209.93C195.69 187.255 195.808 174.693 196.037 172.552C196.338 168.588 197.023 165.105 198.083 162.167C198.549 160.715 199.087 159.182 199.69 157.613C199.8 157.323 199.763 156.987 199.581 156.734C199.398 156.48 199.106 156.325 198.795 156.325H186.035C185.725 156.325 185.423 156.48 185.25 156.734C185.067 156.987 185.031 157.314 185.14 157.604C186.593 161.468 187.588 164.57 188.109 166.783C188.794 170.393 189.141 174.947 189.141 180.316V209.93C189.141 220.207 190.712 227.844 193.817 232.624C197.005 237.54 202.513 240.034 210.176 240.034C217.83 240.034 223.411 237.486 226.763 232.452C229.713 227.935 231.211 220.352 231.211 209.921C231.211 184.624 231.138 171.182 230.973 168.833C230.398 160.153 226.68 155.745 219.921 155.745Z" fill="url(#paint5_linear_407_76)"/>
<path d="M286.954 195.754C286.205 193.894 285.437 191.082 284.679 187.373C283.921 184.08 283.547 180.933 283.547 178.021C283.547 170.792 286.725 164.044 293.009 157.958C293.219 157.758 293.329 157.468 293.292 157.178C293.256 156.888 293.101 156.625 292.845 156.47C291.457 155.609 290.077 155.173 288.744 155.173C285.154 155.173 282.432 157.468 280.661 162.003C279.382 165.25 278.742 169.205 278.742 173.758C278.742 179.917 280.46 187.554 283.848 196.452C287.155 205.141 288.835 212.932 288.835 219.626C288.835 222.493 288.534 225.123 287.931 227.481C270.367 193.921 260.667 175.318 259.087 172.18C256.73 167.5 255.232 163.962 254.62 161.604C254.164 160.18 253.789 158.665 253.488 157.105C253.406 156.652 253.004 156.334 252.547 156.334H239.55C239.175 156.334 238.828 156.552 238.673 156.897C238.518 157.241 238.582 157.64 238.837 157.922C242.198 161.64 244.875 164.833 246.738 167.346C248.574 170.33 249.496 174.357 249.496 179.291C249.496 185.595 247.761 193.114 244.345 201.631C241.066 209.54 239.394 216.606 239.394 222.619C239.394 226.719 240.043 230.402 241.313 233.549C242.929 237.857 245.614 240.043 249.286 240.043C250.702 240.043 252.118 239.608 253.506 238.746C253.762 238.592 253.926 238.329 253.954 238.039C253.981 237.749 253.88 237.458 253.661 237.25C247.386 231.318 244.208 224.651 244.208 217.431C244.208 212.361 245.35 207.1 247.615 201.776C249.231 197.876 250.729 193.921 252.045 190.021C253.141 186.801 253.789 183.218 253.999 179.336L284.862 238.374C285.026 238.692 285.355 238.891 285.711 238.891H287.566C287.904 238.891 288.214 238.719 288.388 238.438C291.712 233.014 293.402 227.146 293.402 221.005C293.402 216.624 292.726 212.307 291.383 208.152C290.068 204.053 288.579 199.88 286.954 195.754Z" fill="url(#paint6_linear_407_76)"/>
<path d="M353.986 184.271C351.986 178.429 349.301 173.395 345.994 169.287C342.669 165.169 338.76 161.94 334.367 159.699C329.955 157.45 325.297 156.307 320.529 156.307H301.732C301.412 156.307 301.12 156.461 300.947 156.715C300.764 156.969 300.727 157.305 300.837 157.595C301.44 159.164 301.997 160.697 302.509 162.176C302.993 163.591 303.413 165.16 303.751 166.838C304.089 168.516 304.354 170.439 304.545 172.552C304.737 174.674 304.828 183.101 304.828 197.586C304.828 212.071 304.728 220.497 304.545 222.619C304.354 224.733 304.089 226.656 303.751 228.334C303.413 230.012 302.993 231.581 302.509 232.996C302.006 234.456 301.44 235.998 300.837 237.576C300.727 237.867 300.764 238.193 300.947 238.456C301.129 238.71 301.422 238.864 301.732 238.864H310.437C310.966 238.864 311.396 238.438 311.396 237.912V232.696C314.611 237.558 319.926 240.016 327.261 240.016C336.888 240.016 344.405 236.633 349.602 229.966C354.507 223.681 357 214.874 357 203.799C357 196.688 355.986 190.112 353.986 184.271ZM328.183 236.751C322.904 236.751 318.739 235.272 315.807 232.361C312.875 229.449 311.386 225.468 311.386 220.533C311.386 191.028 311.46 175.037 311.615 173.014C311.916 169.196 312.528 165.903 313.423 163.228L314.711 159.6H320.411C330.01 159.6 337.134 164.298 342.185 173.94C346.433 182.293 348.579 192.851 348.579 205.314C348.579 226.474 341.911 236.751 328.183 236.751Z" fill="url(#paint7_linear_407_76)"/>
</g>
<defs>
<linearGradient id="paint0_linear_407_76" x1="228.368" y1="26.9025" x2="221.436" y2="109.307" gradientUnits="userSpaceOnUse">
<stop stop-color="#00887B"/>
<stop offset="1"/>
</linearGradient>
<linearGradient id="paint1_linear_407_76" x1="131.818" y1="26.0932" x2="134.047" y2="110.827" gradientUnits="userSpaceOnUse">
<stop stop-color="#00887B"/>
<stop offset="1"/>
</linearGradient>
<linearGradient id="paint2_linear_407_76" x1="28.6923" y1="240.134" x2="28.6923" y2="155.262" gradientUnits="userSpaceOnUse">
<stop stop-color="#00887B"/>
<stop offset="1"/>
</linearGradient>
<linearGradient id="paint3_linear_407_76" x1="93.1057" y1="234.055" x2="94.6586" y2="155.097" gradientUnits="userSpaceOnUse">
<stop stop-color="#00887B"/>
<stop offset="1"/>
</linearGradient>
<linearGradient id="paint4_linear_407_76" x1="149.257" y1="239.135" x2="149.257" y2="154.263" gradientUnits="userSpaceOnUse">
<stop stop-color="#00887B"/>
<stop offset="1"/>
</linearGradient>
<linearGradient id="paint5_linear_407_76" x1="206.557" y1="239.495" x2="208.858" y2="158.508" gradientUnits="userSpaceOnUse">
<stop stop-color="#00887B"/>
<stop offset="1"/>
</linearGradient>
<linearGradient id="paint6_linear_407_76" x1="265.11" y1="240.309" x2="266.567" y2="154.788" gradientUnits="userSpaceOnUse">
<stop stop-color="#00887B"/>
<stop offset="1"/>
</linearGradient>
<linearGradient id="paint7_linear_407_76" x1="328.884" y1="240.038" x2="328.884" y2="156.319" gradientUnits="userSpaceOnUse">
<stop stop-color="#00887B"/>
<stop offset="1"/>
</linearGradient>
<clipPath id="clip0_407_76">
<rect width="357" height="240.034" fill="white"/>
</clipPath>
</defs>
</svg>
