<svg width="40" height="40" viewBox="0 0 40 40" fill="none" xmlns="http://www.w3.org/2000/svg">
<path d="M21.1867 22.1617L26.8501 27.8983C27.8007 28.8658 28.3333 30.1678 28.3333 31.5242C28.3333 32.8805 27.8007 34.1825 26.8501 35.15C25.9793 36.0371 24.8128 36.5732 23.5725 36.6561C22.3321 36.7391 21.1046 36.3632 20.1234 35.6L19.9984 35.4967L19.8767 35.6C19.0785 36.2211 18.1126 36.5891 17.1034 36.6567L16.7651 36.6683C16.0917 36.6685 15.425 36.5345 14.804 36.2741C14.1831 36.0137 13.6202 35.6321 13.1484 35.1517C12.1967 34.1836 11.6637 32.8802 11.6644 31.5226C11.665 30.1651 12.1992 28.8622 13.1517 27.895L18.8134 22.1617C18.9685 22.0044 19.1532 21.8796 19.3569 21.7944C19.5606 21.7092 19.7793 21.6653 20.0001 21.6653C20.2209 21.6653 20.4395 21.7092 20.6432 21.7944C20.8469 21.8796 21.0317 22.0044 21.1867 22.1617ZM35.1501 13.15C36.0377 14.0209 36.574 15.1877 36.657 16.4284C36.7399 17.6691 36.3638 18.897 35.6001 19.8783L35.4967 20L35.6001 20.125C36.2212 20.9232 36.5892 21.8891 36.6567 22.8983L36.6684 23.2367C36.6686 23.91 36.5346 24.5767 36.2742 25.1977C36.0138 25.8187 35.6322 26.3815 35.1517 26.8533C34.1836 27.805 32.8803 28.338 31.5227 28.3374C30.1652 28.3367 28.8623 27.8025 27.8951 26.85L22.1617 21.1883C22.0045 21.0333 21.8797 20.8485 21.7945 20.6448C21.7093 20.4411 21.6654 20.2225 21.6654 20.0017C21.6654 19.7808 21.7093 19.5622 21.7945 19.3585C21.8797 19.1548 22.0045 18.97 22.1617 18.815L27.9001 13.15C28.8675 12.1994 30.1696 11.6667 31.5259 11.6667C32.8822 11.6667 34.1826 12.1994 35.1501 13.15ZM12.1067 13.1533L17.8401 18.815C17.9973 18.97 18.1221 19.1548 18.2074 19.3585C18.2926 19.5622 18.3364 19.7808 18.3364 20.0017C18.3364 20.2225 18.2926 20.4411 18.2074 20.6448C18.1221 20.8485 17.9973 21.0333 17.8401 21.1883L12.1001 26.85C11.1326 27.8006 9.83056 28.3332 8.47424 28.3332C7.11793 28.3332 5.81586 27.8006 4.84841 26.85C3.96128 25.9792 3.42524 24.8127 3.34226 23.5724C3.25929 22.3321 3.63518 21.1045 4.39841 20.1233L4.50174 19.9983L4.39841 19.8767C3.77727 19.0784 3.40925 18.1125 3.34174 17.1033L3.33008 16.765C3.33008 15.405 3.87674 14.1017 4.84674 13.1483C5.81485 12.1967 7.11823 11.6637 8.47576 11.6643C9.83329 11.6649 11.1362 12.1991 12.1034 13.1517M23.2334 3.33333C23.9068 3.33311 24.5735 3.46713 25.1944 3.72754C25.8154 3.98795 26.3783 4.36954 26.8501 4.84999C27.8017 5.8181 28.3347 7.12148 28.3341 8.47901C28.3335 9.83654 27.7993 11.1394 26.8467 12.1067L21.1851 17.84C21.03 17.9972 20.8453 18.1221 20.6416 18.2073C20.4378 18.2925 20.2192 18.3364 19.9984 18.3364C19.7776 18.3364 19.559 18.2925 19.3553 18.2073C19.1515 18.1221 18.9668 17.9972 18.8117 17.84L13.1501 12.1C12.1995 11.1325 11.6668 9.83048 11.6668 8.47416C11.6668 7.11784 12.1995 5.81577 13.1501 4.84833C14.0209 3.9612 15.1874 3.42515 16.4277 3.34218C17.668 3.2592 18.8956 3.63509 19.8767 4.39833L19.9984 4.50166L20.1234 4.39833C20.9217 3.77718 21.8876 3.40917 22.8967 3.34166L23.2334 3.33333Z" fill="white"/>
</svg>
